<svg width="351" height="115" viewBox="0 0 351 115" fill="none" xmlns="http://www.w3.org/2000/svg">
<path d="M294.62 34.0049V60.1958C294.62 60.3848 295.112 61.4808 295.263 61.7454C296.812 64.2398 301.952 64.2398 303.615 61.8588C303.766 61.6698 304.333 60.536 304.333 60.3848V34.0049H315.18L314.991 62.5768C312.648 79.5084 283.773 77.3163 283.773 61.3674V34.0049H294.62Z" fill="#0037CA"/>
<path d="M221.301 34.0049V49.5381L221.679 49.727L230.598 34.0049H242.654L231.241 53.0907L243.032 73.348H231.279L222.057 57.059L221.301 56.5299V73.348H210.605V34.0049H221.301Z" fill="#0037CA"/>
<path d="M196.395 47.4592C195.791 44.4358 191.558 42.017 188.874 43.7933C186.871 45.1538 188.232 47.0435 189.933 47.875C195.262 50.4449 203.236 50.5583 205.693 57.21C208.149 64.0128 205.088 71.1558 198.134 73.3857C189.97 76.0312 178.103 73.688 175.42 64.4664L184.642 59.0997C186.191 62.8412 189.026 64.5042 193.107 64.0506C195.564 63.7861 196.736 61.3295 194.543 60.0445C192.616 58.9107 188.912 58.3816 186.645 57.4745C181.883 55.6227 177.65 52.2212 177.196 46.7412C175.836 30.4143 200.175 28.4113 205.239 41.9792L196.395 47.4592Z" fill="#0037CA"/>
<path d="M331.998 51.3899H337.44C337.591 51.3899 338.536 50.8608 338.687 50.7097C340.275 49.3491 340.086 46.3256 338.309 45.1918C338.158 45.0784 337.327 44.6627 337.213 44.6627H331.998V51.3899ZM331.998 62.2745V73.348H321.113V34.0049H338.801C339.292 34.0049 341.371 34.6474 341.938 34.8363C352.595 38.7669 353.654 54.7158 343.978 60.3092C340.35 62.4635 336.08 62.3501 331.998 62.2745Z" fill="#0037CA"/>
<path d="M256.072 34.0049L262.497 47.8373L269.035 34.0049H280.789L267.939 58.2306V73.348H257.055V58.2306L244.205 34.0049H256.072Z" fill="#0037CA"/>
<path d="M175.632 79.7383H180.492C182.473 79.7383 183.949 80.0141 184.92 80.5658C185.892 81.1096 186.762 81.9759 187.531 83.1647C188.3 84.3456 188.685 85.8413 188.685 87.6516C188.685 89.9281 188.013 91.8316 186.668 93.3622C185.324 94.8851 183.471 95.6465 181.109 95.6465H175.632V79.7383ZM179.291 82.6635V92.6513H180.83C182.189 92.6513 183.199 92.1463 183.86 91.1363C184.52 90.1184 184.85 88.9258 184.85 87.5584C184.85 86.5949 184.66 85.7053 184.279 84.8895C183.906 84.0659 183.44 83.491 182.881 83.1647C182.321 82.8306 181.649 82.6635 180.865 82.6635H179.291ZM194.419 83.8756V95.6465H190.946V83.8756H194.419ZM194.419 79.412V82.885H190.946V79.412H194.419ZM209.045 84.1436C208.68 84.0659 208.373 84.0271 208.124 84.0271C207.355 84.0271 206.904 84.369 206.772 85.0527C207.402 85.7131 207.716 86.459 207.716 87.2903C207.716 88.4014 207.25 89.2871 206.318 89.9475C205.393 90.6079 204.057 90.9381 202.309 90.9381C201.687 90.9381 201.081 90.8799 200.491 90.7633C200.094 90.9964 199.896 91.2955 199.896 91.6607C199.896 92.0647 200.063 92.3328 200.397 92.4648C200.731 92.5969 201.536 92.694 202.81 92.7562C204.62 92.8494 205.867 92.9621 206.551 93.0942C207.235 93.2263 207.809 93.5448 208.276 94.0498C208.742 94.5549 208.975 95.1842 208.975 95.9378C208.975 97.0178 208.474 97.9307 207.471 98.6766C206.477 99.4225 204.709 99.7954 202.169 99.7954C199.784 99.7954 198.175 99.5352 197.344 99.0146C196.513 98.5018 196.097 97.8492 196.097 97.0567C196.097 96.0078 196.769 95.3007 198.113 94.9356C197.119 94.4383 196.621 93.7391 196.621 92.8378C196.621 91.7112 197.406 90.8332 198.975 90.2039C197.585 89.629 196.889 88.6694 196.889 87.3253C196.889 86.2298 197.367 85.3402 198.323 84.6564C199.286 83.9727 200.615 83.6308 202.309 83.6308C203.381 83.6308 204.418 83.8018 205.42 84.1436C205.49 83.4755 205.684 82.9277 206.003 82.5004C206.329 82.0653 207.017 81.8477 208.066 81.8477C208.408 81.8477 208.734 81.8788 209.045 81.941V84.1436ZM202.285 85.5072C201.687 85.5072 201.217 85.6704 200.875 85.9967C200.541 86.3152 200.374 86.7387 200.374 87.267C200.374 88.4635 201.015 89.0618 202.297 89.0618C202.919 89.0618 203.404 88.887 203.754 88.5373C204.111 88.1877 204.29 87.7643 204.29 87.267C204.29 86.8008 204.123 86.3929 203.789 86.0433C203.455 85.6859 202.953 85.5072 202.285 85.5072ZM199.966 95.5649C199.826 95.5649 199.648 95.6581 199.43 95.8446C199.22 96.0311 199.115 96.2564 199.115 96.5206C199.115 97.0489 199.453 97.3791 200.129 97.5112C200.805 97.6433 201.598 97.7093 202.507 97.7093C203.695 97.7093 204.527 97.62 205.001 97.4413C205.482 97.2626 205.723 96.9751 205.723 96.5788C205.723 96.2758 205.521 96.0427 205.117 95.8796C204.721 95.7164 203.657 95.6348 201.924 95.6348L201.225 95.6465C200.797 95.6465 200.51 95.6348 200.362 95.6115C200.199 95.5804 200.067 95.5649 199.966 95.5649ZM213.975 83.8756V95.6465H210.502V83.8756H213.975ZM213.975 79.412V82.885H210.502V79.412H213.975ZM220.746 86.5794V91.5558C220.746 92.1774 220.839 92.593 221.026 92.8028C221.212 93.0126 221.651 93.1175 222.342 93.1175C222.661 93.1175 223.03 93.102 223.45 93.0709V95.6465C222.44 95.8174 221.713 95.9029 221.27 95.9029C219.825 95.9029 218.8 95.6271 218.193 95.0754C217.587 94.516 217.284 93.5099 217.284 92.0569V86.5794H215.42V83.8756H217.483L217.762 80.4026L220.746 80.1695V83.8756H223.286V86.5794H220.746ZM235.722 95.6465H232.354C232.245 95.1803 232.19 94.5665 232.19 93.8051C231.6 94.6442 231.009 95.2036 230.419 95.4833C229.836 95.7553 229.172 95.8912 228.426 95.8912C227.323 95.8912 226.429 95.5921 225.746 94.9938C225.07 94.3956 224.732 93.5914 224.732 92.5814C224.732 91.8433 224.93 91.1634 225.326 90.5419C225.722 89.9203 226.359 89.4347 227.237 89.0851C228.115 88.7277 229.716 88.4635 232.039 88.2926V87.6166C232.039 86.4745 231.468 85.9034 230.326 85.9034C229.106 85.9034 228.426 86.4745 228.286 87.6166L225.081 87.3136C225.291 85.9773 225.924 85.0294 226.981 84.47C228.038 83.9106 229.234 83.6308 230.57 83.6308C231.371 83.6308 232.124 83.7241 232.831 83.9106C233.538 84.097 234.09 84.3767 234.486 84.7497C234.883 85.1226 235.151 85.5189 235.29 85.9384C235.43 86.3502 235.5 87.0728 235.5 88.1061V93.4438C235.5 94.4694 235.574 95.2036 235.722 95.6465ZM232.039 90.0058C229.607 90.2466 228.391 90.9809 228.391 92.2085C228.391 92.6202 228.519 92.9776 228.776 93.2807C229.032 93.5759 229.397 93.7235 229.871 93.7235C230.485 93.7235 230.998 93.471 231.41 92.966C231.829 92.4532 232.039 91.8239 232.039 91.078V90.0058ZM238.379 95.6465V79.7383H241.852V95.6465H238.379ZM261.839 83.2346L258.669 84.2951C258.242 83.0365 257.337 82.4071 255.954 82.4071C254.477 82.4071 253.739 82.885 253.739 83.8406C253.739 84.2213 253.875 84.5438 254.147 84.8079C254.427 85.0721 255.052 85.3013 256.024 85.4955C257.647 85.8219 258.836 86.1521 259.59 86.4862C260.343 86.8203 260.977 87.3602 261.489 88.1061C262.01 88.8442 262.27 89.6717 262.27 90.5885C262.27 92.0259 261.715 93.269 260.604 94.3179C259.5 95.3668 257.861 95.8912 255.686 95.8912C254.054 95.8912 252.663 95.5222 251.513 94.7841C250.371 94.0382 249.618 92.9349 249.252 91.4742L252.702 90.6934C253.091 92.1774 254.17 92.9194 255.942 92.9194C256.797 92.9194 257.434 92.7562 257.853 92.4299C258.273 92.0958 258.483 91.6995 258.483 91.2411C258.483 90.775 258.292 90.4137 257.912 90.1573C257.531 89.9009 256.797 89.66 255.709 89.4347C253.681 89.0152 252.236 88.4441 251.373 87.7215C250.511 86.9912 250.08 85.9268 250.08 84.5282C250.08 83.1142 250.593 81.9215 251.618 80.9503C252.652 79.9792 254.05 79.4936 255.814 79.4936C258.937 79.4936 260.946 80.7406 261.839 83.2346ZM269.438 83.6308C271.232 83.6308 272.631 84.2175 273.633 85.3907C274.643 86.5639 275.148 88.0323 275.148 89.796C275.148 91.5364 274.624 92.9893 273.575 94.1547C272.534 95.3124 271.147 95.8912 269.414 95.8912C267.736 95.8912 266.392 95.3163 265.382 94.1664C264.38 93.0165 263.879 91.5403 263.879 89.7377C263.879 88.4868 264.104 87.4263 264.555 86.5561C265.013 85.6781 265.638 84.9711 266.431 84.435C267.223 83.8989 268.226 83.6308 269.438 83.6308ZM269.531 85.9034C268.87 85.9034 268.373 86.1598 268.039 86.6726C267.705 87.1777 267.538 88.1877 267.538 89.7028C267.538 91.0935 267.697 92.0919 268.016 92.6979C268.334 93.304 268.832 93.607 269.508 93.607C270.098 93.607 270.576 93.3506 270.941 92.8378C271.306 92.3172 271.489 91.3305 271.489 89.8776C271.489 88.3314 271.326 87.2825 270.999 86.7309C270.681 86.1793 270.191 85.9034 269.531 85.9034ZM277.328 95.6465V79.7383H280.801V95.6465H277.328ZM293.725 83.8756V95.6465H290.509V93.6419C289.903 95.1415 288.745 95.8912 287.036 95.8912C286.15 95.8912 285.47 95.7281 284.996 95.4017C284.522 95.0677 284.18 94.617 283.971 94.0498C283.769 93.4749 283.668 92.6474 283.668 91.5675V83.8756H287.036V91.5675C287.036 92.6241 287.471 93.1525 288.341 93.1525C288.784 93.1525 289.168 93.0281 289.495 92.7795C289.821 92.5231 290.027 92.2512 290.112 91.9637C290.206 91.6762 290.252 91.1829 290.252 90.4836V83.8756H293.725ZM300.508 86.5794V91.5558C300.508 92.1774 300.601 92.593 300.788 92.8028C300.974 93.0126 301.413 93.1175 302.105 93.1175C302.423 93.1175 302.792 93.102 303.212 93.0709V95.6465C302.202 95.8174 301.475 95.9029 301.033 95.9029C299.587 95.9029 298.562 95.6271 297.956 95.0754C297.35 94.516 297.047 93.5099 297.047 92.0569V86.5794H295.182V83.8756H297.245L297.525 80.4026L300.508 80.1695V83.8756H303.049V86.5794H300.508ZM308.468 83.8756V95.6465H304.995V83.8756H308.468ZM308.468 79.412V82.885H304.995V79.412H308.468ZM316.218 83.6308C318.013 83.6308 319.412 84.2175 320.414 85.3907C321.424 86.5639 321.929 88.0323 321.929 89.796C321.929 91.5364 321.404 92.9893 320.356 94.1547C319.314 95.3124 317.928 95.8912 316.195 95.8912C314.517 95.8912 313.173 95.3163 312.163 94.1664C311.16 93.0165 310.659 91.5403 310.659 89.7377C310.659 88.4868 310.884 87.4263 311.335 86.5561C311.793 85.6781 312.419 84.9711 313.211 84.435C314.004 83.8989 315.006 83.6308 316.218 83.6308ZM316.311 85.9034C315.651 85.9034 315.154 86.1598 314.82 86.6726C314.486 87.1777 314.319 88.1877 314.319 89.7028C314.319 91.0935 314.478 92.0919 314.796 92.6979C315.115 93.304 315.612 93.607 316.288 93.607C316.879 93.607 317.356 93.3506 317.722 92.8378C318.087 92.3172 318.269 91.3305 318.269 89.8776C318.269 88.3314 318.106 87.2825 317.78 86.7309C317.461 86.1793 316.972 85.9034 316.311 85.9034ZM334.341 95.6465H330.868V89.0385C330.868 88.2382 330.837 87.6904 330.775 87.3952C330.712 87.1 330.561 86.8513 330.32 86.6493C330.079 86.4395 329.776 86.3347 329.411 86.3347C328.191 86.3347 327.581 87.2359 327.581 89.0385V95.6465H324.108V83.8756H327.336V85.8685C327.873 84.9206 328.401 84.3107 328.921 84.0388C329.442 83.7668 330.005 83.6308 330.611 83.6308C331.73 83.6308 332.631 83.9339 333.315 84.5399C333.999 85.1381 334.341 86.3191 334.341 88.0828V95.6465ZM346.018 86.7193L343.489 87.3952C343.194 86.3308 342.429 85.7986 341.194 85.7986C340.028 85.7986 339.445 86.1521 339.445 86.8591C339.445 87.1388 339.55 87.3641 339.76 87.5351C339.978 87.6982 340.537 87.8381 341.438 87.9546C342.782 88.1333 343.777 88.3392 344.422 88.5723C345.067 88.8054 345.576 89.1977 345.948 89.7494C346.329 90.301 346.52 90.9809 346.52 91.7889C346.52 93.0009 346.057 93.9877 345.133 94.7491C344.216 95.5105 342.93 95.8912 341.275 95.8912C338.276 95.8912 336.485 94.7297 335.902 92.4066L338.828 91.9754C339.069 93.032 339.939 93.5604 341.438 93.5604C342.013 93.5604 342.499 93.4594 342.895 93.2573C343.291 93.0476 343.489 92.7679 343.489 92.4182C343.489 91.8744 343.05 91.5519 342.172 91.4509C339.795 91.1557 338.229 90.7012 337.476 90.0874C336.73 89.4658 336.357 88.6034 336.357 87.5001C336.357 86.3813 336.792 85.4567 337.662 84.7264C338.532 83.996 339.752 83.6308 341.322 83.6308C342.565 83.6308 343.559 83.8756 344.305 84.3651C345.051 84.8546 345.622 85.6393 346.018 86.7193Z" fill="white"/>
<path d="M37.7371 100.635L29.1202 101.24L21.5237 100.559C25.7565 101.428 30.1406 101.617 34.4491 101.24L37.7371 100.635ZM21.3347 100.257L19.9363 100.068C19.9363 100.332 21.2969 100.635 21.3347 100.257ZM19.7474 99.8412H19.1427V100.03H19.7474V99.8412ZM18.9537 99.6522L16.1948 98.8585L18.349 99.7656L18.9537 99.6522ZM15.968 98.6696C15.968 98.6318 15.2499 98.4428 15.2121 98.4806C15.1365 98.7451 15.6657 98.8207 15.968 98.8585C15.968 98.7829 16.0058 98.7073 15.968 98.6696ZM14.9854 98.2538L11.8485 96.8933L14.4563 98.3294L14.9854 98.2538ZM11.2438 96.2886H10.8281V96.4775H11.2438V96.2886ZM10.6391 95.9106H10.2612V96.0996H10.6391V95.9106ZM10.0722 95.4949H9.65648V95.6839H10.0722V95.4949ZM9.46751 95.117H9.05178V95.3059H9.46751V95.117ZM8.67384 94.7012C8.74943 94.6256 8.3337 94.1721 8.06915 94.3233C7.99356 94.3989 8.40929 94.8524 8.67384 94.7012ZM6.48181 92.9249C6.70858 93.3029 7.08651 93.7564 7.50224 93.7186L6.48181 92.9249ZM70.353 85.215C70.0884 85.2528 69.8617 85.1772 69.6349 85.0261C67.8208 83.7033 65.2131 81.0199 63.4368 79.3948C56.8985 73.4234 50.398 66.5828 43.7463 60.9137C34.0711 52.6369 21.7126 57.21 16.0058 67.5654C10.9415 76.8249 12.7933 87.7472 20.6166 94.7012C25.681 99.1987 32.257 101.013 38.9087 100.408C38.9087 100.408 44.6156 99.8412 47.1477 99.2743C52.7034 98.0271 57.8433 95.5327 62.4919 92.3202C65.3264 90.355 68.2743 87.9362 70.353 85.215ZM143.03 0.255021C143.181 0.406195 143.257 0.708544 143.257 0.935306C144.013 6.22641 143.408 12.9915 143.484 18.5093C143.559 23.2713 143.862 28.1467 143.899 32.9087C143.937 37.255 143.937 41.5634 143.786 45.8719C143.446 46.2876 142.841 46.6656 142.312 46.3632L133.506 37.5573L133.015 37.4817L89.7411 85.1394C89.6655 85.4418 93.2559 88.881 93.785 89.3723C99.2273 94.7012 104.594 100.332 112.417 101.958C130.785 105.813 146.469 84.4214 133.506 69.1905C128.669 63.5215 123.491 62.9924 116.839 61.1783C116.65 61.1027 116.348 61.2161 116.423 60.9137C129.765 53.544 145.071 61.783 148.283 76.1824C152.403 94.5123 136.038 113.031 117.897 114.089C102.364 114.996 92.0087 105.699 81.7289 95.6839C81.5021 95.5327 81.1998 95.3059 80.9352 95.3059C80.5573 95.3059 76.4756 99.501 75.6819 100.144C55.0844 117.566 16.5727 121.837 3.49612 93.2651C-10.9032 61.783 25.6054 28.1845 53.5348 51.3142C58.1457 55.1313 62.7943 59.6666 67.1783 63.7861C71.1845 67.4898 74.9638 71.4204 79.1211 74.9352L117.784 30.1498C117.973 29.7718 117.141 29.7718 116.877 29.6962C114.005 29.016 111.057 28.7892 108.184 28.1089C107.353 27.8443 107.315 26.8617 107.693 26.2192L141.065 0.443989C141.481 -0.0473277 142.614 -0.160709 143.03 0.255021Z" fill="#0037CA"/>
<path d="M47.0351 99.3118C44.503 99.8787 38.9095 100.408 38.9095 100.408C32.2578 100.937 25.8707 99.274 20.8064 94.8522C12.9075 87.9737 10.98 76.938 16.0066 67.7164C21.7134 57.3609 34.0719 52.7879 43.7471 61.0647C50.3988 66.7337 56.8993 73.5744 63.4375 79.5458C64.7603 80.793 68.3507 84.3456 69.938 85.7439L79.5754 74.4058C75.3803 70.9288 71.5254 66.7337 67.5193 63.03C63.1352 58.9483 58.4866 54.3752 53.8758 50.5581C25.9463 27.4284 -12.3008 61.8584 3.83704 92.509C13.2476 110.385 41.1393 103.885 51.0035 98.178C49.7185 98.6315 48.3579 99.0095 47.0351 99.3118Z" fill="#F1891A"/>
</svg>
