<svg width="413" height="115" viewBox="0 0 413 115" fill="none" xmlns="http://www.w3.org/2000/svg">
<path d="M335.833 15.3604V51.0451C335.833 51.3026 336.503 52.7959 336.709 53.1563C338.82 56.5549 345.823 56.5549 348.089 53.3108C348.295 53.0533 349.067 51.5085 349.067 51.3026V15.3604H363.846L363.588 54.2892C360.395 77.3581 321.055 74.3715 321.055 52.6414V15.3604H335.833Z" fill="#0037CA"/>
<path d="M235.936 15.3604V36.524L236.451 36.7815L248.603 15.3604H265.029L249.479 41.3644L265.544 68.9647H249.53L236.966 46.7712L235.936 46.0503V68.9647H221.363V15.3604H235.936Z" fill="#0037CA"/>
<path d="M202.001 33.6918C201.177 29.5724 195.409 26.2768 191.753 28.697C189.024 30.5508 190.878 33.1254 193.195 34.2583C200.456 37.7598 211.321 37.9143 214.668 46.9771C218.015 56.2458 213.844 65.978 204.369 69.0161C193.247 72.6207 177.078 69.4281 173.422 56.8638L185.986 49.5517C188.097 54.6496 191.959 56.9152 197.521 56.2973C200.868 55.9369 202.464 52.5898 199.477 50.8391C196.851 49.2943 191.805 48.5734 188.715 47.3375C182.227 44.8144 176.46 40.18 175.842 32.7135C173.988 10.4684 207.15 7.73929 214.05 26.2253L202.001 33.6918Z" fill="#0037CA"/>
<path d="M386.76 39.0472H394.175C394.381 39.0472 395.668 38.3263 395.874 38.1203C398.037 36.2666 397.779 32.1471 395.359 30.6023C395.153 30.4478 394.02 29.8814 393.866 29.8814H386.76V39.0472ZM386.76 53.8772V68.9647H371.93V15.3604H396.028C396.698 15.3604 399.53 16.2357 400.302 16.4932C414.823 21.8485 416.265 43.5786 403.083 51.1996C398.14 54.1347 392.321 53.9802 386.76 53.8772Z" fill="#0037CA"/>
<path d="M283.309 15.3604L292.063 34.2068L300.972 15.3604H316.986L299.478 48.3675V68.9647H284.648V48.3675L267.141 15.3604H283.309Z" fill="#0037CA"/>
<path d="M175.065 82.425H181.351C183.913 82.425 185.822 82.7818 187.078 83.4952C188.335 84.1986 189.46 85.3191 190.455 86.8566C191.45 88.384 191.947 90.3184 191.947 92.6598C191.947 95.6041 191.078 98.066 189.339 100.046C187.601 102.015 185.204 103 182.149 103H175.065V82.425ZM179.798 86.2084V99.1262H181.788C183.546 99.1262 184.853 98.473 185.707 97.1667C186.561 95.8503 186.988 94.3078 186.988 92.5392C186.988 91.2931 186.742 90.1425 186.249 89.0874C185.767 88.0222 185.164 87.2786 184.441 86.8566C183.717 86.4245 182.848 86.2084 181.833 86.2084H179.798ZM199.363 87.776V103H194.871V87.776H199.363ZM199.363 82.003V86.4948H194.871V82.003H199.363ZM218.28 88.1227C217.808 88.0222 217.411 87.972 217.089 87.972C216.094 87.972 215.512 88.4141 215.341 89.2984C216.155 90.1526 216.562 91.1173 216.562 92.1925C216.562 93.6295 215.959 94.775 214.753 95.6292C213.557 96.4833 211.829 96.9104 209.568 96.9104C208.764 96.9104 207.98 96.835 207.216 96.6843C206.704 96.9858 206.448 97.3727 206.448 97.845C206.448 98.3675 206.664 98.7142 207.096 98.885C207.528 99.0558 208.568 99.1814 210.216 99.2618C212.557 99.3824 214.17 99.5281 215.054 99.699C215.939 99.8698 216.682 100.282 217.285 100.935C217.888 101.588 218.19 102.402 218.19 103.377C218.19 104.774 217.541 105.954 216.245 106.919C214.959 107.884 212.673 108.366 209.387 108.366C206.302 108.366 204.222 108.029 203.146 107.356C202.071 106.693 201.534 105.849 201.534 104.824C201.534 103.467 202.403 102.553 204.141 102.081C202.855 101.437 202.212 100.533 202.212 99.3673C202.212 97.9103 203.227 96.7748 205.257 95.9608C203.458 95.2172 202.559 93.9762 202.559 92.2377C202.559 90.8208 203.177 89.6702 204.413 88.7859C205.659 87.9016 207.377 87.4595 209.568 87.4595C210.954 87.4595 212.296 87.6806 213.592 88.1227C213.683 87.2585 213.934 86.5501 214.346 85.9974C214.768 85.4346 215.657 85.1533 217.014 85.1533C217.456 85.1533 217.878 85.1935 218.28 85.2739V88.1227ZM209.538 89.8863C208.764 89.8863 208.156 90.0973 207.714 90.5194C207.282 90.9314 207.066 91.479 207.066 92.1623C207.066 93.7099 207.895 94.4836 209.553 94.4836C210.357 94.4836 210.985 94.2575 211.437 93.8053C211.899 93.3531 212.13 92.8055 212.13 92.1623C212.13 91.5594 211.914 91.0318 211.482 90.5796C211.05 90.1174 210.402 89.8863 209.538 89.8863ZM206.538 102.894C206.357 102.894 206.126 103.015 205.845 103.256C205.573 103.497 205.438 103.789 205.438 104.13C205.438 104.814 205.875 105.241 206.749 105.412C207.623 105.583 208.648 105.668 209.824 105.668C211.361 105.668 212.437 105.552 213.05 105.321C213.673 105.09 213.984 104.718 213.984 104.206C213.984 103.814 213.723 103.512 213.2 103.301C212.688 103.09 211.311 102.985 209.07 102.985L208.166 103C207.613 103 207.241 102.985 207.05 102.955C206.839 102.915 206.669 102.894 206.538 102.894ZM224.656 87.776V103H220.164V87.776H224.656ZM224.656 82.003V86.4948H220.164V82.003H224.656ZM233.414 91.273V97.7093C233.414 98.5132 233.534 99.0508 233.775 99.3221C234.016 99.5934 234.584 99.7291 235.479 99.7291C235.891 99.7291 236.368 99.709 236.911 99.6688V103C235.604 103.221 234.665 103.332 234.092 103.332C232.223 103.332 230.896 102.975 230.113 102.261C229.329 101.538 228.937 100.237 228.937 98.3574V91.273H226.525V87.776H229.193L229.555 83.2842L233.414 82.9827V87.776H236.7V91.273H233.414ZM252.783 103H248.427C248.286 102.397 248.215 101.603 248.215 100.618C247.452 101.704 246.688 102.427 245.924 102.789C245.171 103.141 244.312 103.317 243.347 103.317C241.92 103.317 240.764 102.93 239.88 102.156C239.006 101.382 238.569 100.342 238.569 99.0357C238.569 98.0811 238.825 97.2018 239.337 96.3979C239.85 95.594 240.674 94.966 241.809 94.5138C242.945 94.0515 245.015 93.7099 248.02 93.4888V92.6145C248.02 91.1374 247.281 90.3988 245.804 90.3988C244.226 90.3988 243.347 91.1374 243.166 92.6145L239.021 92.2226C239.292 90.4942 240.111 89.2683 241.478 88.5448C242.844 87.8212 244.392 87.4595 246.12 87.4595C247.155 87.4595 248.13 87.5801 249.045 87.8212C249.959 88.0624 250.672 88.4242 251.185 88.9065C251.697 89.3889 252.044 89.9014 252.225 90.444C252.406 90.9766 252.496 91.9111 252.496 93.2476V100.151C252.496 101.478 252.592 102.427 252.783 103ZM248.02 95.7046C244.874 96.0161 243.302 96.9657 243.302 98.5534C243.302 99.086 243.467 99.5482 243.799 99.9401C244.131 100.322 244.603 100.513 245.216 100.513C246.01 100.513 246.673 100.186 247.206 99.5332C247.748 98.8699 248.02 98.056 248.02 97.0913V95.7046ZM256.219 103V82.425H260.711V103H256.219ZM286.562 86.947L282.462 88.3187C281.909 86.6908 280.739 85.8768 278.95 85.8768C277.041 85.8768 276.086 86.4948 276.086 87.7308C276.086 88.2232 276.262 88.6402 276.613 88.9819C276.975 89.3235 277.784 89.62 279.04 89.8712C281.14 90.2933 282.678 90.7203 283.653 91.1524C284.627 91.5845 285.446 92.2829 286.11 93.2476C286.783 94.2023 287.12 95.2725 287.12 96.4582C287.12 98.3172 286.401 99.9251 284.964 101.282C283.537 102.638 281.417 103.317 278.603 103.317C276.493 103.317 274.694 102.839 273.207 101.885C271.73 100.92 270.755 99.493 270.283 97.6038L274.744 96.5939C275.247 98.5132 276.644 99.4729 278.935 99.4729C280.04 99.4729 280.864 99.2618 281.407 98.8398C281.949 98.4077 282.221 97.8952 282.221 97.3023C282.221 96.6994 281.975 96.2321 281.482 95.9005C280.99 95.5689 280.04 95.2574 278.633 94.966C276.011 94.4233 274.141 93.6847 273.026 92.7502C271.911 91.8056 271.353 90.4289 271.353 88.6201C271.353 86.7912 272.016 85.2487 273.343 83.9926C274.679 82.7365 276.488 82.1085 278.769 82.1085C282.809 82.1085 285.406 83.7213 286.562 86.947ZM296.39 87.4595C298.711 87.4595 300.52 88.2182 301.816 89.7355C303.122 91.2529 303.775 93.1521 303.775 95.4332C303.775 97.6842 303.097 99.5633 301.741 101.071C300.394 102.568 298.6 103.317 296.359 103.317C294.189 103.317 292.45 102.573 291.144 101.086C289.848 99.5985 289.2 97.6892 289.2 95.3579C289.2 93.74 289.491 92.3683 290.074 91.2429C290.667 90.1074 291.476 89.1929 292.501 88.4995C293.526 87.8062 294.822 87.4595 296.39 87.4595ZM296.51 90.3988C295.656 90.3988 295.013 90.7304 294.581 91.3936C294.149 92.0468 293.933 93.3531 293.933 95.3126C293.933 97.1114 294.139 98.4027 294.551 99.1865C294.963 99.9703 295.606 100.362 296.48 100.362C297.244 100.362 297.862 100.031 298.334 99.3673C298.806 98.6941 299.042 97.4179 299.042 95.5387C299.042 93.539 298.831 92.1824 298.409 91.469C297.997 90.7555 297.364 90.3988 296.51 90.3988ZM306.594 103V82.425H311.086V103H306.594ZM327.802 87.776V103H323.642V100.407C322.858 102.347 321.361 103.317 319.15 103.317C318.005 103.317 317.125 103.106 316.512 102.683C315.899 102.251 315.457 101.669 315.186 100.935C314.925 100.191 314.794 99.1212 314.794 97.7244V87.776H319.15V97.7244C319.15 99.091 319.713 99.7743 320.838 99.7743C321.411 99.7743 321.909 99.6135 322.331 99.292C322.753 98.9604 323.019 98.6087 323.129 98.2369C323.25 97.865 323.31 97.2269 323.31 96.3226V87.776H327.802ZM336.575 91.273V97.7093C336.575 98.5132 336.695 99.0508 336.937 99.3221C337.178 99.5934 337.746 99.7291 338.64 99.7291C339.052 99.7291 339.529 99.709 340.072 99.6688V103C338.765 103.221 337.826 103.332 337.253 103.332C335.384 103.332 334.058 102.975 333.274 102.261C332.49 101.538 332.098 100.237 332.098 98.3574V91.273H329.686V87.776H332.354L332.716 83.2842L336.575 82.9827V87.776H339.861V91.273H336.575ZM346.87 87.776V103H342.378V87.776H346.87ZM346.87 82.003V86.4948H342.378V82.003H346.87ZM356.894 87.4595C359.215 87.4595 361.024 88.2182 362.32 89.7355C363.626 91.2529 364.279 93.1521 364.279 95.4332C364.279 97.6842 363.601 99.5633 362.245 101.071C360.898 102.568 359.104 103.317 356.863 103.317C354.693 103.317 352.954 102.573 351.648 101.086C350.352 99.5985 349.704 97.6892 349.704 95.3579C349.704 93.74 349.995 92.3683 350.578 91.2429C351.171 90.1074 351.98 89.1929 353.005 88.4995C354.03 87.8062 355.326 87.4595 356.894 87.4595ZM357.014 90.3988C356.16 90.3988 355.517 90.7304 355.085 91.3936C354.653 92.0468 354.437 93.3531 354.437 95.3126C354.437 97.1114 354.643 98.4027 355.055 99.1865C355.467 99.9703 356.11 100.362 356.984 100.362C357.748 100.362 358.366 100.031 358.838 99.3673C359.31 98.6941 359.546 97.4179 359.546 95.5387C359.546 93.539 359.335 92.1824 358.913 91.469C358.501 90.7555 357.868 90.3988 357.014 90.3988ZM380.332 103H375.841V94.4535C375.841 93.4184 375.8 92.71 375.72 92.3281C375.64 91.9463 375.444 91.6247 375.132 91.3635C374.821 91.0921 374.429 90.9565 373.956 90.9565C372.379 90.9565 371.59 92.1221 371.59 94.4535V103H367.098V87.776H371.273V90.3535C371.967 89.1276 372.65 88.3388 373.323 87.9871C373.997 87.6353 374.725 87.4595 375.509 87.4595C376.956 87.4595 378.122 87.8514 379.006 88.6352C379.89 89.409 380.332 90.9364 380.332 93.2175V103ZM395.436 91.4539L392.165 92.3281C391.783 90.9515 390.793 90.2631 389.196 90.2631C387.688 90.2631 386.935 90.7203 386.935 91.6348C386.935 91.9965 387.07 92.2879 387.342 92.509C387.623 92.72 388.346 92.9009 389.512 93.0517C391.251 93.2828 392.537 93.5491 393.371 93.8505C394.205 94.152 394.863 94.6595 395.345 95.3729C395.838 96.0864 396.084 96.9657 396.084 98.0108C396.084 99.5784 395.486 100.855 394.29 101.839C393.105 102.824 391.441 103.317 389.301 103.317C385.422 103.317 383.106 101.814 382.352 98.8096L386.136 98.2519C386.447 99.6186 387.573 100.302 389.512 100.302C390.256 100.302 390.884 100.171 391.396 99.91C391.909 99.6387 392.165 99.2769 392.165 98.8247C392.165 98.1213 391.597 97.7043 390.462 97.5736C387.387 97.1918 385.362 96.6039 384.387 95.8101C383.422 95.0062 382.94 93.8907 382.94 92.4638C382.94 91.0168 383.503 89.821 384.628 88.8764C385.754 87.9318 387.331 87.4595 389.361 87.4595C390.969 87.4595 392.255 87.776 393.22 88.4091C394.185 89.0422 394.923 90.0571 395.436 91.4539Z" fill="#1C1B17"/>
<path d="M37.7391 100.635L29.1221 101.24L21.5256 100.559C25.7585 101.428 30.1426 101.617 34.451 101.24L37.7391 100.635ZM21.3367 100.257L19.9383 100.068C19.9383 100.332 21.2989 100.635 21.3367 100.257ZM19.7493 99.8412H19.1446V100.03H19.7493V99.8412ZM18.9557 99.6522L16.1967 98.8585L18.351 99.7656L18.9557 99.6522ZM15.97 98.6696C15.97 98.6318 15.2519 98.4428 15.2141 98.4806C15.1385 98.7451 15.6676 98.8207 15.97 98.8585C15.97 98.7829 16.0078 98.7074 15.97 98.6696ZM14.9873 98.2538L11.8505 96.8933L14.4582 98.3294L14.9873 98.2538ZM11.2458 96.2886H10.83V96.4775H11.2458V96.2886ZM10.6411 95.9106H10.2631V96.0996H10.6411V95.9106ZM10.0742 95.4949H9.65843V95.6839H10.0742V95.4949ZM9.46946 95.117H9.05373V95.3059H9.46946V95.117ZM8.6758 94.7012C8.75138 94.6256 8.33565 94.1721 8.0711 94.3233C7.99551 94.3989 8.41124 94.8524 8.6758 94.7012ZM6.48377 92.9249C6.71053 93.3029 7.08847 93.7564 7.50419 93.7186L6.48377 92.9249ZM70.3549 85.215C70.0904 85.2528 69.8636 85.1772 69.6369 85.0261C67.8228 83.7033 65.215 81.0199 63.4387 79.3948C56.9004 73.4234 50.3999 66.5828 43.7483 60.9137C34.0731 52.6369 21.7146 57.21 16.0078 67.5654C10.9434 76.8249 12.7953 87.7472 20.6186 94.7012C25.6829 99.1987 32.259 101.013 38.9107 100.408C38.9107 100.408 44.6175 99.8412 47.1497 99.2743C52.7053 98.0271 57.8453 95.5327 62.4939 92.3202C65.3284 90.355 68.2763 87.9362 70.3549 85.215ZM143.032 0.255021C143.183 0.406195 143.259 0.708544 143.259 0.935306C144.015 6.22641 143.41 12.9915 143.486 18.5093C143.561 23.2713 143.863 28.1467 143.901 32.9087C143.939 37.255 143.939 41.5634 143.788 45.8719C143.448 46.2876 142.843 46.6656 142.314 46.3632L133.508 37.5573L133.017 37.4817L89.7431 85.1395C89.6675 85.4418 93.2579 88.881 93.787 89.3723C99.2293 94.7012 104.596 100.332 112.419 101.958C130.787 105.813 146.471 84.4214 133.508 69.1905C128.67 63.5215 123.493 62.9924 116.841 61.1783C116.652 61.1027 116.35 61.2161 116.425 60.9137C129.766 53.544 145.073 61.783 148.285 76.1824C152.405 94.5123 136.04 113.031 117.899 114.089C102.366 114.996 92.0107 105.699 81.7308 95.6839C81.5041 95.5327 81.2017 95.3059 80.9372 95.3059C80.5592 95.3059 76.4775 99.501 75.6838 100.144C55.0863 117.566 16.5747 121.837 3.49807 93.2651C-10.9013 61.783 25.6073 28.1845 53.5368 51.3142C58.1476 55.1313 62.7962 59.6666 67.1803 63.7861C71.1864 67.4898 74.9658 71.4204 79.1231 74.9352L117.786 30.1498C117.975 29.7718 117.143 29.7718 116.879 29.6962C114.007 29.016 111.059 28.7892 108.186 28.1089C107.355 27.8443 107.317 26.8617 107.695 26.2192L141.067 0.443989C141.482 -0.0473277 142.616 -0.160709 143.032 0.255021Z" fill="#0037CA"/>
<path d="M47.0351 99.3121C44.503 99.879 38.9095 100.408 38.9095 100.408C32.2578 100.937 25.8707 99.2743 20.8064 94.8524C12.9075 87.974 10.98 76.9383 16.0066 67.7166C21.7134 57.3612 34.0719 52.7881 43.7471 61.0649C50.3988 66.734 56.8993 73.5746 63.4375 79.546C64.7603 80.7932 68.3507 84.3458 69.938 85.7442L79.5754 74.4061C75.3803 70.9291 71.5254 66.734 67.5193 63.0302C63.1352 58.9485 58.4866 54.3755 53.8758 50.5583C25.9463 27.4286 -12.3008 61.8586 3.83704 92.5092C13.2476 110.386 41.1393 103.885 51.0035 98.1783C49.7185 98.6318 48.3579 99.0097 47.0351 99.3121Z" fill="#F1891A"/>
</svg>
